<?xml version="1.0" encoding="UTF-8" standalone="no"?>
<!DOCTYPE svg PUBLIC "-//W3C//DTD SVG 1.1//EN"
 "http://www.w3.org/Graphics/SVG/1.1/DTD/svg11.dtd">
<!-- Generated by graphviz version 2.38.0 (20140413.2041)
 -->
<!-- Title: Tree Pages: 1 -->
<svg width="509pt" height="552pt"
 viewBox="0.00 0.00 509.00 552.00" xmlns="http://www.w3.org/2000/svg" xmlns:xlink="http://www.w3.org/1999/xlink">
<g id="graph0" class="graph" transform="scale(1 1) rotate(0) translate(4 548)">
<title>Tree</title>
<polygon fill="white" stroke="none" points="-4,4 -4,-548 505,-548 505,4 -4,4"/>
<!-- 0 -->
<g id="node1" class="node"><title>0</title>
<path fill="#399de5" fill-opacity="0.443137" stroke="black" d="M260,-544C260,-544 181,-544 181,-544 175,-544 169,-538 169,-532 169,-532 169,-473 169,-473 169,-467 175,-461 181,-461 181,-461 260,-461 260,-461 266,-461 272,-467 272,-473 272,-473 272,-532 272,-532 272,-538 266,-544 260,-544"/>
<text text-anchor="start" x="191.5" y="-528.8" font-family="Helvetica,sans-Serif" font-size="14.00">学生 ≤ 0.5</text>
<text text-anchor="start" x="179" y="-513.8" font-family="Helvetica,sans-Serif" font-size="14.00">gini = 0.4592</text>
<text text-anchor="start" x="177" y="-498.8" font-family="Helvetica,sans-Serif" font-size="14.00">samples = 14</text>
<text text-anchor="start" x="180" y="-483.8" font-family="Helvetica,sans-Serif" font-size="14.00">value = [5, 9]</text>
<text text-anchor="start" x="190" y="-468.8" font-family="Helvetica,sans-Serif" font-size="14.00">class = 否</text>
</g>
<!-- 1 -->
<g id="node2" class="node"><title>1</title>
<path fill="#e58139" fill-opacity="0.250980" stroke="black" d="M200,-425C200,-425 125,-425 125,-425 119,-425 113,-419 113,-413 113,-413 113,-354 113,-354 113,-348 119,-342 125,-342 125,-342 200,-342 200,-342 206,-342 212,-348 212,-354 212,-354 212,-413 212,-413 212,-419 206,-425 200,-425"/>
<text text-anchor="start" x="133.5" y="-409.8" font-family="Helvetica,sans-Serif" font-size="14.00">年龄 ≤ 0.5</text>
<text text-anchor="start" x="121" y="-394.8" font-family="Helvetica,sans-Serif" font-size="14.00">gini = 0.4898</text>
<text text-anchor="start" x="123" y="-379.8" font-family="Helvetica,sans-Serif" font-size="14.00">samples = 7</text>
<text text-anchor="start" x="122" y="-364.8" font-family="Helvetica,sans-Serif" font-size="14.00">value = [4, 3]</text>
<text text-anchor="start" x="132" y="-349.8" font-family="Helvetica,sans-Serif" font-size="14.00">class = 是</text>
</g>
<!-- 0&#45;&gt;1 -->
<g id="edge1" class="edge"><title>0&#45;&gt;1</title>
<path fill="none" stroke="black" d="M200.377,-460.907C196.103,-452.286 191.545,-443.09 187.125,-434.175"/>
<polygon fill="black" stroke="black" points="190.165,-432.426 182.587,-425.021 183.893,-435.535 190.165,-432.426"/>
<text text-anchor="middle" x="174.6" y="-445.011" font-family="Helvetica,sans-Serif" font-size="14.00">True</text>
</g>
<!-- 8 -->
<g id="node9" class="node"><title>8</title>
<path fill="#399de5" fill-opacity="0.831373" stroke="black" d="M317,-425C317,-425 242,-425 242,-425 236,-425 230,-419 230,-413 230,-413 230,-354 230,-354 230,-348 236,-342 242,-342 242,-342 317,-342 317,-342 323,-342 329,-348 329,-354 329,-354 329,-413 329,-413 329,-419 323,-425 317,-425"/>
<text text-anchor="start" x="239" y="-409.8" font-family="Helvetica,sans-Serif" font-size="14.00">信用等级 ≤ 0.5</text>
<text text-anchor="start" x="238" y="-394.8" font-family="Helvetica,sans-Serif" font-size="14.00">gini = 0.2449</text>
<text text-anchor="start" x="240" y="-379.8" font-family="Helvetica,sans-Serif" font-size="14.00">samples = 7</text>
<text text-anchor="start" x="239" y="-364.8" font-family="Helvetica,sans-Serif" font-size="14.00">value = [1, 6]</text>
<text text-anchor="start" x="249" y="-349.8" font-family="Helvetica,sans-Serif" font-size="14.00">class = 否</text>
</g>
<!-- 0&#45;&gt;8 -->
<g id="edge8" class="edge"><title>0&#45;&gt;8</title>
<path fill="none" stroke="black" d="M240.97,-460.907C245.317,-452.286 249.954,-443.09 254.45,-434.175"/>
<polygon fill="black" stroke="black" points="257.689,-435.526 259.066,-425.021 251.439,-432.374 257.689,-435.526"/>
<text text-anchor="middle" x="266.891" y="-445.065" font-family="Helvetica,sans-Serif" font-size="14.00">False</text>
</g>
<!-- 2 -->
<g id="node3" class="node"><title>2</title>
<path fill="#e58139" stroke="black" d="M85,-298.5C85,-298.5 12,-298.5 12,-298.5 6,-298.5 0,-292.5 0,-286.5 0,-286.5 0,-242.5 0,-242.5 0,-236.5 6,-230.5 12,-230.5 12,-230.5 85,-230.5 85,-230.5 91,-230.5 97,-236.5 97,-242.5 97,-242.5 97,-286.5 97,-286.5 97,-292.5 91,-298.5 85,-298.5"/>
<text text-anchor="start" x="19.5" y="-283.3" font-family="Helvetica,sans-Serif" font-size="14.00">gini = 0.0</text>
<text text-anchor="start" x="9" y="-268.3" font-family="Helvetica,sans-Serif" font-size="14.00">samples = 3</text>
<text text-anchor="start" x="8" y="-253.3" font-family="Helvetica,sans-Serif" font-size="14.00">value = [3, 0]</text>
<text text-anchor="start" x="18" y="-238.3" font-family="Helvetica,sans-Serif" font-size="14.00">class = 是</text>
</g>
<!-- 1&#45;&gt;2 -->
<g id="edge2" class="edge"><title>1&#45;&gt;2</title>
<path fill="none" stroke="black" d="M122.948,-341.907C111.659,-330.321 99.3594,-317.698 88.0692,-306.111"/>
<polygon fill="black" stroke="black" points="90.302,-303.387 80.8165,-298.667 85.2884,-308.272 90.302,-303.387"/>
</g>
<!-- 3 -->
<g id="node4" class="node"><title>3</title>
<path fill="#399de5" fill-opacity="0.666667" stroke="black" d="M200,-306C200,-306 127,-306 127,-306 121,-306 115,-300 115,-294 115,-294 115,-235 115,-235 115,-229 121,-223 127,-223 127,-223 200,-223 200,-223 206,-223 212,-229 212,-235 212,-235 212,-294 212,-294 212,-300 206,-306 200,-306"/>
<text text-anchor="start" x="123" y="-290.8" font-family="Helvetica,sans-Serif" font-size="14.00">信用等级 ≤ 0.5</text>
<text text-anchor="start" x="126" y="-275.8" font-family="Helvetica,sans-Serif" font-size="14.00">gini = 0.375</text>
<text text-anchor="start" x="124" y="-260.8" font-family="Helvetica,sans-Serif" font-size="14.00">samples = 4</text>
<text text-anchor="start" x="123" y="-245.8" font-family="Helvetica,sans-Serif" font-size="14.00">value = [1, 3]</text>
<text text-anchor="start" x="133" y="-230.8" font-family="Helvetica,sans-Serif" font-size="14.00">class = 否</text>
</g>
<!-- 1&#45;&gt;3 -->
<g id="edge3" class="edge"><title>1&#45;&gt;3</title>
<path fill="none" stroke="black" d="M162.847,-341.907C162.918,-333.649 162.993,-324.864 163.066,-316.302"/>
<polygon fill="black" stroke="black" points="166.568,-316.05 163.154,-306.021 159.568,-315.99 166.568,-316.05"/>
</g>
<!-- 4 -->
<g id="node5" class="node"><title>4</title>
<path fill="#399de5" stroke="black" d="M114,-179.5C114,-179.5 41,-179.5 41,-179.5 35,-179.5 29,-173.5 29,-167.5 29,-167.5 29,-123.5 29,-123.5 29,-117.5 35,-111.5 41,-111.5 41,-111.5 114,-111.5 114,-111.5 120,-111.5 126,-117.5 126,-123.5 126,-123.5 126,-167.5 126,-167.5 126,-173.5 120,-179.5 114,-179.5"/>
<text text-anchor="start" x="48.5" y="-164.3" font-family="Helvetica,sans-Serif" font-size="14.00">gini = 0.0</text>
<text text-anchor="start" x="38" y="-149.3" font-family="Helvetica,sans-Serif" font-size="14.00">samples = 2</text>
<text text-anchor="start" x="37" y="-134.3" font-family="Helvetica,sans-Serif" font-size="14.00">value = [0, 2]</text>
<text text-anchor="start" x="47" y="-119.3" font-family="Helvetica,sans-Serif" font-size="14.00">class = 否</text>
</g>
<!-- 3&#45;&gt;4 -->
<g id="edge4" class="edge"><title>3&#45;&gt;4</title>
<path fill="none" stroke="black" d="M133.663,-222.907C125.309,-211.542 116.221,-199.178 107.838,-187.774"/>
<polygon fill="black" stroke="black" points="110.622,-185.652 101.879,-179.667 104.982,-189.797 110.622,-185.652"/>
</g>
<!-- 5 -->
<g id="node6" class="node"><title>5</title>
<path fill="none" stroke="black" d="M229,-187C229,-187 156,-187 156,-187 150,-187 144,-181 144,-175 144,-175 144,-116 144,-116 144,-110 150,-104 156,-104 156,-104 229,-104 229,-104 235,-104 241,-110 241,-116 241,-116 241,-175 241,-175 241,-181 235,-187 229,-187"/>
<text text-anchor="start" x="163.5" y="-171.8" font-family="Helvetica,sans-Serif" font-size="14.00">年龄 ≤ 1.5</text>
<text text-anchor="start" x="163.5" y="-156.8" font-family="Helvetica,sans-Serif" font-size="14.00">gini = 0.5</text>
<text text-anchor="start" x="153" y="-141.8" font-family="Helvetica,sans-Serif" font-size="14.00">samples = 2</text>
<text text-anchor="start" x="152" y="-126.8" font-family="Helvetica,sans-Serif" font-size="14.00">value = [1, 1]</text>
<text text-anchor="start" x="162" y="-111.8" font-family="Helvetica,sans-Serif" font-size="14.00">class = 是</text>
</g>
<!-- 3&#45;&gt;5 -->
<g id="edge5" class="edge"><title>3&#45;&gt;5</title>
<path fill="none" stroke="black" d="M173.561,-222.907C175.653,-214.468 177.882,-205.477 180.048,-196.738"/>
<polygon fill="black" stroke="black" points="183.448,-197.569 182.456,-187.021 176.653,-195.885 183.448,-197.569"/>
</g>
<!-- 6 -->
<g id="node7" class="node"><title>6</title>
<path fill="#399de5" stroke="black" d="M171,-68C171,-68 98,-68 98,-68 92,-68 86,-62 86,-56 86,-56 86,-12 86,-12 86,-6 92,-0 98,-0 98,-0 171,-0 171,-0 177,-0 183,-6 183,-12 183,-12 183,-56 183,-56 183,-62 177,-68 171,-68"/>
<text text-anchor="start" x="105.5" y="-52.8" font-family="Helvetica,sans-Serif" font-size="14.00">gini = 0.0</text>
<text text-anchor="start" x="95" y="-37.8" font-family="Helvetica,sans-Serif" font-size="14.00">samples = 1</text>
<text text-anchor="start" x="94" y="-22.8" font-family="Helvetica,sans-Serif" font-size="14.00">value = [0, 1]</text>
<text text-anchor="start" x="104" y="-7.8" font-family="Helvetica,sans-Serif" font-size="14.00">class = 否</text>
</g>
<!-- 5&#45;&gt;6 -->
<g id="edge6" class="edge"><title>5&#45;&gt;6</title>
<path fill="none" stroke="black" d="M170.903,-103.726C166.313,-95.0615 161.459,-85.8962 156.842,-77.1802"/>
<polygon fill="black" stroke="black" points="159.912,-75.4982 152.138,-68.2996 153.726,-78.7748 159.912,-75.4982"/>
</g>
<!-- 7 -->
<g id="node8" class="node"><title>7</title>
<path fill="#e58139" stroke="black" d="M286,-68C286,-68 213,-68 213,-68 207,-68 201,-62 201,-56 201,-56 201,-12 201,-12 201,-6 207,-0 213,-0 213,-0 286,-0 286,-0 292,-0 298,-6 298,-12 298,-12 298,-56 298,-56 298,-62 292,-68 286,-68"/>
<text text-anchor="start" x="220.5" y="-52.8" font-family="Helvetica,sans-Serif" font-size="14.00">gini = 0.0</text>
<text text-anchor="start" x="210" y="-37.8" font-family="Helvetica,sans-Serif" font-size="14.00">samples = 1</text>
<text text-anchor="start" x="209" y="-22.8" font-family="Helvetica,sans-Serif" font-size="14.00">value = [1, 0]</text>
<text text-anchor="start" x="219" y="-7.8" font-family="Helvetica,sans-Serif" font-size="14.00">class = 是</text>
</g>
<!-- 5&#45;&gt;7 -->
<g id="edge7" class="edge"><title>5&#45;&gt;7</title>
<path fill="none" stroke="black" d="M213.725,-103.726C218.235,-95.0615 223.006,-85.8962 227.543,-77.1802"/>
<polygon fill="black" stroke="black" points="230.653,-78.7859 232.166,-68.2996 224.444,-75.5537 230.653,-78.7859"/>
</g>
<!-- 9 -->
<g id="node10" class="node"><title>9</title>
<path fill="#399de5" stroke="black" d="M316,-298.5C316,-298.5 243,-298.5 243,-298.5 237,-298.5 231,-292.5 231,-286.5 231,-286.5 231,-242.5 231,-242.5 231,-236.5 237,-230.5 243,-230.5 243,-230.5 316,-230.5 316,-230.5 322,-230.5 328,-236.5 328,-242.5 328,-242.5 328,-286.5 328,-286.5 328,-292.5 322,-298.5 316,-298.5"/>
<text text-anchor="start" x="250.5" y="-283.3" font-family="Helvetica,sans-Serif" font-size="14.00">gini = 0.0</text>
<text text-anchor="start" x="240" y="-268.3" font-family="Helvetica,sans-Serif" font-size="14.00">samples = 4</text>
<text text-anchor="start" x="239" y="-253.3" font-family="Helvetica,sans-Serif" font-size="14.00">value = [0, 4]</text>
<text text-anchor="start" x="249" y="-238.3" font-family="Helvetica,sans-Serif" font-size="14.00">class = 否</text>
</g>
<!-- 8&#45;&gt;9 -->
<g id="edge9" class="edge"><title>8&#45;&gt;9</title>
<path fill="none" stroke="black" d="M279.5,-341.907C279.5,-331.204 279.5,-319.615 279.5,-308.776"/>
<polygon fill="black" stroke="black" points="283,-308.667 279.5,-298.667 276,-308.667 283,-308.667"/>
</g>
<!-- 10 -->
<g id="node11" class="node"><title>10</title>
<path fill="#399de5" fill-opacity="0.498039" stroke="black" d="M433,-306C433,-306 358,-306 358,-306 352,-306 346,-300 346,-294 346,-294 346,-235 346,-235 346,-229 352,-223 358,-223 358,-223 433,-223 433,-223 439,-223 445,-229 445,-235 445,-235 445,-294 445,-294 445,-300 439,-306 433,-306"/>
<text text-anchor="start" x="366.5" y="-290.8" font-family="Helvetica,sans-Serif" font-size="14.00">年龄 ≤ 1.5</text>
<text text-anchor="start" x="354" y="-275.8" font-family="Helvetica,sans-Serif" font-size="14.00">gini = 0.4444</text>
<text text-anchor="start" x="356" y="-260.8" font-family="Helvetica,sans-Serif" font-size="14.00">samples = 3</text>
<text text-anchor="start" x="355" y="-245.8" font-family="Helvetica,sans-Serif" font-size="14.00">value = [1, 2]</text>
<text text-anchor="start" x="365" y="-230.8" font-family="Helvetica,sans-Serif" font-size="14.00">class = 否</text>
</g>
<!-- 8&#45;&gt;10 -->
<g id="edge10" class="edge"><title>8&#45;&gt;10</title>
<path fill="none" stroke="black" d="M319.746,-341.907C328.923,-332.651 338.757,-322.732 348.199,-313.209"/>
<polygon fill="black" stroke="black" points="350.77,-315.586 355.326,-306.021 345.799,-310.658 350.77,-315.586"/>
</g>
<!-- 11 -->
<g id="node12" class="node"><title>11</title>
<path fill="#399de5" stroke="black" d="M374,-179.5C374,-179.5 301,-179.5 301,-179.5 295,-179.5 289,-173.5 289,-167.5 289,-167.5 289,-123.5 289,-123.5 289,-117.5 295,-111.5 301,-111.5 301,-111.5 374,-111.5 374,-111.5 380,-111.5 386,-117.5 386,-123.5 386,-123.5 386,-167.5 386,-167.5 386,-173.5 380,-179.5 374,-179.5"/>
<text text-anchor="start" x="308.5" y="-164.3" font-family="Helvetica,sans-Serif" font-size="14.00">gini = 0.0</text>
<text text-anchor="start" x="298" y="-149.3" font-family="Helvetica,sans-Serif" font-size="14.00">samples = 2</text>
<text text-anchor="start" x="297" y="-134.3" font-family="Helvetica,sans-Serif" font-size="14.00">value = [0, 2]</text>
<text text-anchor="start" x="307" y="-119.3" font-family="Helvetica,sans-Serif" font-size="14.00">class = 否</text>
</g>
<!-- 10&#45;&gt;11 -->
<g id="edge11" class="edge"><title>10&#45;&gt;11</title>
<path fill="none" stroke="black" d="M375.377,-222.907C369.907,-211.873 363.971,-199.898 358.456,-188.773"/>
<polygon fill="black" stroke="black" points="361.519,-187.072 353.942,-179.667 355.247,-190.181 361.519,-187.072"/>
</g>
<!-- 12 -->
<g id="node13" class="node"><title>12</title>
<path fill="#e58139" stroke="black" d="M489,-179.5C489,-179.5 416,-179.5 416,-179.5 410,-179.5 404,-173.5 404,-167.5 404,-167.5 404,-123.5 404,-123.5 404,-117.5 410,-111.5 416,-111.5 416,-111.5 489,-111.5 489,-111.5 495,-111.5 501,-117.5 501,-123.5 501,-123.5 501,-167.5 501,-167.5 501,-173.5 495,-179.5 489,-179.5"/>
<text text-anchor="start" x="423.5" y="-164.3" font-family="Helvetica,sans-Serif" font-size="14.00">gini = 0.0</text>
<text text-anchor="start" x="413" y="-149.3" font-family="Helvetica,sans-Serif" font-size="14.00">samples = 1</text>
<text text-anchor="start" x="412" y="-134.3" font-family="Helvetica,sans-Serif" font-size="14.00">value = [1, 0]</text>
<text text-anchor="start" x="422" y="-119.3" font-family="Helvetica,sans-Serif" font-size="14.00">class = 是</text>
</g>
<!-- 10&#45;&gt;12 -->
<g id="edge12" class="edge"><title>10&#45;&gt;12</title>
<path fill="none" stroke="black" d="M415.276,-222.907C420.652,-211.873 426.486,-199.898 431.906,-188.773"/>
<polygon fill="black" stroke="black" points="435.108,-190.19 436.342,-179.667 428.816,-187.124 435.108,-190.19"/>
</g>
</g>
</svg>
